<svg id="visual" viewBox="0 0 900 600" width="900" height="600" xmlns="http://www.w3.org/2000/svg" xmlns:xlink="http://www.w3.org/1999/xlink" version="1.1"><rect x="0" y="0" width="900" height="600" fill="#11111b"></rect><path d="M0 475L21.5 485C43 495 86 515 128.8 520.5C171.7 526 214.3 517 257.2 509C300 501 343 494 385.8 490C428.7 486 471.3 485 514.2 493.7C557 502.3 600 520.7 642.8 530.8C685.7 541 728.3 543 771.2 541.2C814 539.3 857 533.7 878.5 530.8L900 528L900 601L878.5 601C857 601 814 601 771.2 601C728.3 601 685.7 601 642.8 601C600 601 557 601 514.2 601C471.3 601 428.7 601 385.8 601C343 601 300 601 257.2 601C214.3 601 171.7 601 128.8 601C86 601 43 601 21.5 601L0 601Z" fill="#b4befe" stroke-linecap="round" stroke-linejoin="miter"></path></svg>